<svg width="17" height="18" viewBox="0 0 17 18" fill="none" xmlns="http://www.w3.org/2000/svg">
<path d="M16.7276 16.2922L13.2264 12.7058C14.3619 11.3123 14.9841 9.5591 14.9841 7.7339C14.9841 3.4695 11.6231 0 7.49206 0C3.361 0 0 3.4695 0 7.7339C0 11.9983 3.361 15.4678 7.49206 15.4678C9.04291 15.4678 10.5208 14.9849 11.7844 14.0683L15.3191 17.6906C15.5051 17.89 15.7553 18 16.0234 18C16.2771 18 16.5178 17.9001 16.7006 17.7186C17.0889 17.3329 17.1012 16.6933 16.7276 16.2922ZM7.49206 2.01754C10.5456 2.01754 13.0297 4.58183 13.0297 7.7339C13.0297 10.886 10.5456 13.4503 7.49206 13.4503C4.43855 13.4503 1.95445 10.886 1.95445 7.7339C1.95445 4.58183 4.43855 2.01754 7.49206 2.01754Z" fill="#A6A6A6"/>
</svg>
